<svg width="582" height="1003" viewBox="0 0 582 1003" fill="none" xmlns="http://www.w3.org/2000/svg">
<path d="M207.651 87.7725C225.748 31.8435 257.516 4.18189 291.574 6.09082C325.163 7.97353 356.257 38.5665 373.285 88.7051C395.609 80.5503 415.149 77.9415 431.229 81.4141C449.137 85.2816 462.064 96.5519 469.26 114.161C476.319 131.436 477.815 154.603 473.992 182.815C470.616 207.732 463.033 236.99 451.023 270.323C486.393 254.542 515.089 248.679 536.158 252.028C548.168 253.938 557.946 258.891 564.803 266.935C571.635 274.95 575.074 285.454 575.521 297.582C576.405 321.584 565.654 353.227 543.752 389.67C524.532 421.65 496.417 457.832 458.976 496.567C495.477 486.39 523.497 483.819 542.95 487.87C554.757 490.329 563.997 495.358 569.733 503.226C575.51 511.147 577.064 521.024 575.326 531.766C571.914 552.851 555.578 579.126 528.47 607.617C502.261 635.163 465.353 665.435 418.306 695.957C426.456 705.371 432.615 715.124 435.454 726.063C438.879 739.262 437.276 753.389 430.003 769.627C415.847 801.231 379.414 842.478 311.966 904.356V977.089L311.957 977.713C311.781 984.115 308.894 989.165 304.529 992.471C300.208 995.744 294.765 997.089 289.666 996.995C284.563 996.901 279.209 995.356 274.986 992.105C270.618 988.742 267.587 983.609 267.587 977.089V903.721L265.578 901.049C230.255 870.55 190.087 831.868 166.172 794.723C154.178 776.094 145.874 757.254 144.787 739.631C143.83 724.101 148.514 709.82 160.378 697.995C105.561 664.005 66.9149 631.224 42.0166 601.911C16.25 571.576 4.52687 544.132 6.14746 522.516C6.97187 511.521 11.2656 502.115 18.7627 495.024C26.1907 488 36.373 483.609 48.4502 481.8C67.3036 478.976 91.4521 482.321 119.309 492.624C81.0576 447.181 53.1665 408.293 34.6797 376.002C13.777 339.491 4.30585 310.42 6.59375 289.514C7.76864 278.778 12.0776 269.981 19.6514 263.758C27.1053 257.633 37.1076 254.505 48.8125 253.77C69.333 252.48 96.6639 258.443 129.44 271.079C103.082 204.584 100.271 149.084 115.126 114.528C123.139 95.8892 136.476 83.0543 154.148 78.6602C169.89 74.7463 188.104 77.7723 207.651 87.7725ZM311.966 275.106L355.855 194.2L356.97 192.146L359.18 191.387C367.99 188.36 375.684 187.513 381.977 191.629C384.977 193.592 387.113 196.356 388.785 199.313C390.444 202.247 391.828 205.703 393.155 209.38L394.041 211.833L392.852 214.154L311.966 371.98V462.754L420.493 356.672L421.614 355.576L423.128 355.169C428.492 353.726 433.233 352.874 437.315 352.93C441.472 352.986 445.467 353.999 448.642 356.808C451.76 359.567 453.255 363.333 453.994 367.146C454.73 370.944 454.837 375.411 454.668 380.312L454.587 382.664L452.927 384.334L311.966 526.142V624.266L413.179 562.805L414.917 561.748L416.939 561.968C424.855 562.826 432.29 564.564 436.773 570.273C441.239 575.96 441.386 583.805 440.23 592.638L439.866 595.423L437.494 596.928L311.966 676.513V756.138L331.284 742.486L333.173 741.152L335.469 741.431C343.57 742.413 350.339 744.688 354.477 750.574C358.342 756.073 358.889 763.43 358.734 771.43L358.673 774.57L356.058 776.31L311.966 805.634V838.66L381.491 772.405C385.933 764.25 389.229 757.415 391.26 751.539C393.361 745.459 393.946 740.856 393.367 737.174C392.319 730.51 386.887 724.145 370.093 717.232C360.999 715.142 353.014 709.796 352.569 700.475C352.16 691.888 358.631 683.663 368.349 676.767L496.636 581.661V579.838L498.352 578.088C511.733 564.441 521.727 552.627 527.764 543.25C530.791 538.548 532.654 534.716 533.529 531.759C534.429 528.722 534.059 527.415 533.862 527.023C533.772 526.844 533.332 526.02 530.781 525.47C528.143 524.9 524.023 524.832 518.028 525.715C506.094 527.473 488.442 532.729 464.077 542.404L463.77 542.526L463.45 542.613C450.986 546.033 439.666 547.286 430.153 546.154C420.637 545.022 412.416 541.418 407.14 534.643C401.823 527.815 400.313 518.825 402.073 508.672C403.822 498.582 408.848 486.893 417.234 473.777L417.411 473.5L417.617 473.244L510.899 357.514C521.549 339.914 528.648 325.309 532.134 314.038C533.887 308.368 534.643 303.803 534.604 300.278C534.566 296.771 533.754 294.682 532.774 293.429C530.987 291.143 526.152 288.918 514.005 291.392C502.321 293.771 486.03 300.121 464.632 311.253L464.43 311.358L464.22 311.447C452.652 316.389 442.83 319.771 434.633 321.163C426.48 322.547 419.031 322.117 413.039 318.292C406.964 314.414 403.71 307.902 402.047 300.155C400.389 292.433 400.122 282.642 400.707 270.936L400.745 270.163L400.979 269.425L429.722 178.621C434.318 161.954 434.53 149.057 432.222 140.008C429.931 131.031 425.307 126.166 420.13 124.255C414.832 122.299 407.523 122.903 398.938 127.882C390.375 132.849 380.982 141.966 372.212 155.979L371.424 157.237L370.142 157.983C363.56 161.81 356.643 164.971 349.777 163.171C342.778 161.336 338.188 155.023 334.191 147.133L333.517 145.801L333.545 144.308C334.131 113.296 328.655 89.8048 320.474 74.1123C312.23 58.3004 301.776 51.2235 292.502 50.6309C283.411 50.05 272.846 55.5646 263.901 70.8652C254.972 86.1411 248.26 110.384 247.206 144.606L247.161 146.06L246.456 147.332C242.602 154.281 238.006 160.518 230.676 162.151C223.577 163.733 216.108 160.464 208.078 155.51L206.838 154.744L206.087 153.496C198.301 140.55 190.168 131.953 182.779 127.149C175.384 122.341 169.267 121.621 164.793 123.133C160.356 124.632 155.938 128.867 153.075 137.438C150.227 145.965 149.155 158.243 151.179 174.394L176.259 269.709L176.429 270.354L176.452 271.021C176.876 282.908 176.482 292.976 174.581 300.871C172.665 308.826 168.978 315.497 162.123 319.072C155.494 322.53 147.311 322.326 138.183 320.085C128.995 317.829 117.842 313.255 104.446 306.625C88.0581 299.983 75.316 295.708 65.8281 293.936C55.869 292.075 51.4994 293.363 49.7119 294.979C48.098 296.439 46.4664 300.204 48.0781 309.908C49.6017 319.082 53.7249 331.685 60.5566 348.314L175.137 491.201L176.074 492.37L176.353 493.844C177.957 502.354 178.811 509.845 178.442 516.296C178.07 522.808 176.429 528.649 172.7 533.432C165.328 542.887 151.717 545.826 133.474 546.413L132.36 546.449L131.308 546.083C106.305 537.377 86.607 531.257 72.2021 528.155C64.9849 526.601 59.3613 525.865 55.2002 525.863C50.8219 525.861 49.1314 526.681 48.6709 527.058C48.5597 527.149 48.5258 527.196 48.4824 527.347C48.4152 527.58 48.3154 528.189 48.5117 529.372C48.9235 531.852 50.4265 535.642 53.6416 541.024C59.9588 551.599 71.7032 566.416 89.3535 586.179L221.927 681.501L222.757 682.098L223.343 682.936C225.381 685.853 227.181 688.7 228.423 691.479C229.676 694.284 230.52 697.365 230.243 700.65C229.666 707.508 224.568 712.352 218.079 716.538L217.35 717.009L216.517 717.253C201.083 721.785 193.258 727.204 190.058 732.797C187.108 737.953 187.171 745.018 192.517 755.731C197.858 766.438 207.872 779.489 222.404 795.388C234.539 808.662 249.595 823.678 267.258 840.687L266.46 805.683L222.297 776.31L219.882 774.704L219.641 771.813C218.928 763.29 219.294 755.42 224.026 749.724C228.781 744 236.527 742.153 245.51 741.407L247.827 741.215L249.669 742.635L266.389 755.523V676.538L150.488 604.127L149.017 603.208L148.264 601.646C145.639 596.205 143.898 591.43 143.299 587.229C142.681 582.898 143.232 578.751 145.695 575.225C148.047 571.859 151.559 569.917 155.015 568.627C158.486 567.331 162.617 566.436 166.953 565.624L169.211 565.201L171.174 566.395L266.389 624.261V526.157L124.246 384.352L122.407 382.517L122.486 379.92C122.662 374.211 123.255 369.384 124.509 365.474C125.788 361.485 127.891 358.051 131.312 355.796C134.676 353.578 138.505 353.042 142.15 353.173C145.759 353.302 149.752 354.108 153.911 355.139L155.479 355.527L156.641 356.65L266.389 462.854V371.964L187.885 216.515L186.928 214.619L187.376 212.543C189.503 202.695 192.852 194.592 200.34 191.344C203.997 189.757 207.91 189.682 211.73 190.27C215.526 190.854 219.683 192.166 224.132 193.837L226.317 194.658L227.373 196.74L266.389 273.66V135.965L268.133 134.21C275.744 126.552 282.913 122.019 290.838 122.755C298.266 123.445 304.404 128.75 310.07 134.062L311.966 135.841V275.106Z" fill="white" stroke="#242B7B" stroke-width="12"/>
</svg>
