<svg width="1282" height="1282" viewBox="0 0 1282 1282" fill="none" xmlns="http://www.w3.org/2000/svg">
<g clip-path="url(#clip0_44_5)">
<circle cx="641" cy="641" r="625" fill="white" stroke="#242B7B" stroke-width="32"/>
<path d="M619.968 1126.75V1218.13C619.967 1239.89 659.077 1241.34 659.077 1218.13V1126.75C825.309 974.034 833.21 928.103 783.648 875.805C1023.34 722.406 1048.72 574.092 818.412 650.971C1039.33 433.179 1020.57 276.775 821.309 375.368C893.344 186.985 853.227 103.363 735.847 150.535C696.619 22.4254 586.652 5.4803 544.645 150.535C442.123 90.5543 383.862 201.303 459.184 375.368C273.147 296.734 233.195 389.012 459.184 649.52C278.505 563.116 214.388 707.542 495.397 878.706C423.007 934.703 530.161 1046.97 615.622 1120.95L619.968 1070.18C512.456 967.293 472.714 918.593 548.991 896.112C564.069 886.348 562.864 879.336 553.337 865.651L392.553 749.608C305.981 652.442 329.549 646.414 450.493 688.685C494.763 687.254 502.985 673.978 495.397 633.564L356.341 459.499C322.218 376.525 338.634 366.001 418.626 398.577C483.186 430.696 497.421 419.311 495.397 362.313L464.978 246.27C454.554 164.379 505.536 150.535 544.645 215.809C564.034 227.815 571.623 225.269 580.858 208.556C586.04 39.7069 702.532 54.7987 699.635 208.556C709.182 227.476 716.847 228.108 732.951 218.71C777.112 147.878 838.691 167.941 815.515 252.072L780.751 362.313C777.96 418.334 792.152 428.065 847.383 404.379C951.604 349.956 965.067 384.191 912.565 471.104L799.582 611.806C760.239 673.568 789.442 700.289 847.383 684.333C965.721 637.164 961.814 672.729 896.632 739.454V742.355L738.745 859.849C715.993 875.991 718.466 891.76 738.745 896.112C780.969 913.38 778.891 932.743 756.127 974.441L659.077 1067.28V1006.35L715.569 968.639C715.944 949.182 712.235 941.866 693.841 939.628L659.077 964.287V849.695L814.067 751.058C816.83 729.853 811.375 724.12 792.339 722.047L659.077 803.277V668.377L831.449 494.312C832.245 471.194 827.405 464.371 802.479 471.104L659.077 611.806V482.708L757.575 289.786C751.277 272.277 746.086 265.353 725.708 272.38L659.077 395.676V201.303C644.829 187.892 636.328 183.318 618.519 201.303V395.676L557.682 275.281C536.776 267.397 528.03 268.937 522.918 292.687L618.519 482.708V611.806L473.669 471.104C453.973 466.203 445.513 467.759 444.699 494.312L618.519 668.377V803.277L492.5 726.399C471.658 730.317 462.947 734.441 475.118 759.761L618.519 849.695V964.287L586.652 939.628C565.263 941.412 560.319 948.127 562.028 968.639L618.519 1006.35L619.968 1070.18V1126.75Z" fill="#3B3D87"/>
<path d="M619.968 1126.75C619.968 1126.75 619.968 1196.37 619.968 1218.13M619.968 1126.75V1070.18M619.968 1126.75L615.622 1120.95M619.968 1126.75V1218.13M619.968 1218.13C619.967 1239.89 659.077 1241.34 659.077 1218.13M659.077 1218.13C659.077 1194.92 659.077 1126.75 659.077 1126.75M659.077 1218.13V1126.75M659.077 1126.75C825.309 974.034 833.21 928.103 783.648 875.805C1023.34 722.406 1048.72 574.092 818.412 650.971C1039.33 433.179 1020.57 276.775 821.309 375.368C893.344 186.985 853.227 103.363 735.847 150.535C696.619 22.4254 586.652 5.4803 544.645 150.535C442.123 90.5543 383.862 201.303 459.184 375.368C273.147 296.734 233.195 389.012 459.184 649.52C278.505 563.116 214.388 707.542 495.397 878.706C423.007 934.703 530.161 1046.97 615.622 1120.95M615.622 1120.95L619.968 1070.18M619.968 1070.18C512.456 967.293 472.714 918.593 548.991 896.112C564.069 886.348 562.864 879.336 553.337 865.651L392.553 749.608C305.981 652.442 329.549 646.414 450.493 688.685C494.763 687.254 502.985 673.978 495.397 633.564L356.341 459.499C322.218 376.525 338.634 366.001 418.626 398.577C483.186 430.696 497.421 419.311 495.397 362.313L464.978 246.27C454.554 164.379 505.536 150.535 544.645 215.809C564.034 227.815 571.623 225.269 580.858 208.556C586.04 39.7069 702.532 54.7987 699.635 208.556C709.182 227.476 716.847 228.108 732.951 218.71C777.112 147.878 838.691 167.941 815.515 252.072L780.751 362.313C777.96 418.334 792.152 428.065 847.383 404.379C951.604 349.956 965.067 384.191 912.565 471.104L799.582 611.806C760.239 673.568 789.442 700.289 847.383 684.333C965.721 637.164 961.814 672.729 896.632 739.454V742.355L738.745 859.849C715.993 875.991 718.466 891.76 738.745 896.112C780.969 913.38 778.891 932.743 756.127 974.441L659.077 1067.28V1006.35L715.569 968.639C715.944 949.182 712.235 941.866 693.841 939.628L659.077 964.287V849.695L814.067 751.058C816.83 729.853 811.375 724.12 792.339 722.047L659.077 803.277V668.377L831.449 494.312C832.245 471.194 827.405 464.371 802.479 471.104L659.077 611.806V482.708L757.575 289.786C751.277 272.277 746.086 265.353 725.708 272.38L659.077 395.676V201.303C644.829 187.892 636.328 183.318 618.519 201.303V395.676L557.682 275.281C536.776 267.397 528.03 268.937 522.918 292.687L618.519 482.708V611.806L473.669 471.104C453.973 466.203 445.513 467.759 444.699 494.312L618.519 668.377V803.277L492.5 726.399C471.658 730.317 462.947 734.441 475.118 759.761L618.519 849.695V964.287L586.652 939.628C565.263 941.412 560.319 948.127 562.028 968.639L618.519 1006.35L619.968 1070.18Z" stroke="#242B7B"/>
</g>
<rect x="0.5" y="0.5" width="1281" height="1281" stroke="#242B7B"/>
<defs>
<clipPath id="clip0_44_5">
<rect width="1282" height="1282" fill="white"/>
</clipPath>
</defs>
</svg>
