<svg width="620" height="1059" viewBox="0 0 620 1059" xmlns="http://www.w3.org/2000/svg">
<rect width="620" height="1059" fill="#3B3D87"/>
<path d="M228.327 121.321C245.891 62.556 277.408 35.7943 309.322 37.583C341.117 39.3651 372.038 69.4709 388.475 121.58C412.244 112.272 432.353 109.374 448.278 112.813C464.641 116.347 476.421 126.536 483.094 142.863C489.732 159.107 491.305 181.378 487.533 209.211C483.874 236.218 475.165 268.586 461.026 305.995C500.716 286.889 531.804 280.031 553.452 283.473C564.628 285.249 573.351 289.784 579.378 296.854C585.399 303.916 588.604 313.365 589.023 324.748C589.86 347.45 579.634 378.179 557.895 414.352C536.849 449.369 504.918 489.643 461.438 532.922C506.073 518.663 538.831 514.86 560.032 519.275C571.137 521.588 579.221 526.189 584.098 532.877C588.985 539.579 590.486 548.148 588.885 558.047C585.697 577.744 570.159 603.191 543.21 631.516C516.487 659.602 478.378 690.689 429.428 722.037C439.114 732.444 446.125 742.735 449.099 754.194C452.21 766.183 450.855 779.251 443.896 794.788C430.074 825.647 393.932 866.678 325.466 929.377V1004.09L325.459 1004.58C325.324 1009.6 323.109 1013.39 319.812 1015.88C316.456 1018.43 312.059 1019.58 307.749 1019.5C303.438 1019.42 299.064 1018.11 295.731 1015.54C292.363 1012.95 290.087 1009.08 290.087 1004.09V929.217L286.886 924.959C251.524 894.455 211.582 855.984 187.955 819.287C176.133 800.924 168.296 782.856 167.278 766.354C166.292 750.364 171.721 735.935 185.844 724.304C128.576 689.357 88.7139 655.745 63.4463 625.998C37.9531 595.985 27.1467 569.701 28.6348 549.853C29.3823 539.882 33.2367 531.553 39.8545 525.294C46.455 519.052 55.7068 514.959 67.1172 513.25C88.61 510.031 118.011 515.224 152.771 530.824C108.373 479.386 76.7681 436.021 56.585 400.767C35.7572 364.387 26.945 336.396 29.0674 317.003C30.1363 307.236 33.9872 299.592 40.5078 294.234C46.9986 288.901 55.9799 285.959 67.0947 285.261C88.6245 283.908 118.644 290.941 155.637 306.194C125.742 235.799 122.386 177.906 137.261 143.306C144.841 125.672 157.204 114.013 173.234 110.027C188.809 106.155 207.561 109.596 228.327 121.321ZM289.533 923.487L290.087 924.224V917.047L289.533 923.487ZM325.466 319.841L377.811 223.346L378.09 222.832L378.643 222.643C387.171 219.713 393.063 219.485 397.513 222.396C399.701 223.827 401.4 225.932 402.868 228.528C404.333 231.118 405.613 234.281 406.923 237.908L407.145 238.521L406.847 239.102L325.466 397.896V500.444L441.639 386.89L441.919 386.616L442.298 386.514C447.508 385.112 451.783 384.382 455.254 384.43C458.744 384.477 461.554 385.314 463.659 387.178C465.751 389.029 466.937 391.708 467.576 395.003C468.214 398.294 468.337 402.356 468.171 407.156L468.15 407.744L467.735 408.162L325.466 551.285V659.263L433.515 593.65L433.949 593.387L434.455 593.441C442.343 594.297 448.004 595.939 451.234 600.053C454.46 604.161 454.915 610.288 453.769 619.055L453.677 619.751L453.084 620.127L325.466 701.037V791.828L351.882 773.162L352.354 772.828L352.928 772.897C360.663 773.835 365.786 775.882 368.795 780.162C371.735 784.346 372.389 790.325 372.234 798.343L372.22 799.128L371.565 799.562L325.466 830.223V876.164L403.106 802.177C407.752 793.686 411.307 786.393 413.513 780.009C415.737 773.572 416.551 768.172 415.812 763.475C414.364 754.26 406.782 747.002 389.468 739.931C380.92 738.068 375.368 733.628 375.064 727.26C374.77 721.088 379.539 714.097 389.029 707.382L519.136 610.926V608.677L519.564 608.239C533.028 594.509 543.267 582.442 549.547 572.687C552.689 567.806 554.798 563.568 555.844 560.037C556.895 556.486 556.814 553.856 555.885 552.005C554.983 550.207 553.102 548.799 549.729 548.071C546.336 547.339 541.608 547.345 535.373 548.264C522.916 550.099 504.877 555.508 480.416 565.222L480.339 565.252L480.26 565.274C468.15 568.597 457.441 569.727 448.686 568.686C439.929 567.644 432.997 564.408 428.689 558.877C424.372 553.333 422.895 545.746 424.508 536.44C426.118 527.15 430.822 516.031 439.025 503.201L439.069 503.132L439.121 503.068L532.592 387.104C543.406 369.261 550.772 354.205 554.433 342.367C556.266 336.44 557.15 331.385 557.104 327.229C557.059 323.079 556.09 319.922 554.319 317.657C550.82 313.183 543.519 311.455 531.107 313.982C518.812 316.486 502.082 323.062 480.555 334.261L480.504 334.287L480.452 334.31C468.987 339.208 459.55 342.424 451.879 343.727C444.219 345.027 438.094 344.458 433.46 341.499C428.805 338.527 425.981 333.356 424.447 326.211C422.915 319.072 422.622 309.751 423.201 298.161L423.211 297.968L423.27 297.783L452.04 206.889C456.787 189.711 457.149 175.954 454.582 165.895C452.02 155.853 446.576 149.577 439.688 147.033C432.77 144.479 424.042 145.56 414.681 150.989C405.324 156.416 395.445 166.135 386.397 180.592L386.2 180.906L385.88 181.093C379.235 184.956 373.815 187.102 368.918 185.818C363.988 184.525 360.169 179.923 356.206 172.1L356.037 171.767L356.044 171.394C356.64 139.863 351.088 115.573 342.464 99.0312C333.825 82.4604 322.238 73.8713 310.789 73.1396C299.386 72.411 287.458 79.4431 278.017 95.5947C268.579 111.74 261.776 136.801 260.708 171.468L260.697 171.831L260.521 172.149C256.69 179.056 252.929 183.593 247.697 184.759C242.523 185.912 236.468 183.631 228.441 178.68L228.131 178.488L227.943 178.177C219.926 164.846 211.361 155.661 203.232 150.377C195.102 145.091 187.541 143.779 181.353 145.87C175.173 147.958 169.96 153.574 166.808 163.012C163.659 172.438 162.625 185.54 164.749 202.242L189.907 297.854L189.949 298.016L189.955 298.183C190.375 309.968 189.96 319.536 188.206 326.817C186.449 334.114 183.287 339.347 178.042 342.083C172.853 344.789 165.984 344.858 157.256 342.715C148.513 340.568 137.657 336.139 124.289 329.516C107.773 322.816 94.6358 318.376 84.6543 316.512C74.5552 314.625 68.1944 315.476 64.6934 318.643C61.2358 321.77 59.988 327.706 61.6387 337.646C63.2671 347.45 67.6322 360.63 74.6377 377.621L189.626 521.017L189.86 521.309L189.931 521.677C191.51 530.054 192.287 537.128 191.949 543.04C191.611 548.967 190.145 553.825 187.151 557.665C181.185 565.317 169.634 568.326 151.329 568.916L151.051 568.925L150.787 568.833C125.763 560.12 105.843 553.92 91.1494 550.756C83.799 549.173 77.8227 548.366 73.2031 548.363C68.5291 548.361 65.518 549.187 63.8213 550.575C62.2608 551.852 61.5318 553.854 62.0723 557.109C62.6224 560.423 64.4676 564.79 67.7783 570.332C74.3708 581.368 86.4696 596.574 104.32 616.54L237.3 712.154L237.508 712.304L237.654 712.514C239.643 715.359 241.248 717.929 242.314 720.315C243.383 722.708 243.95 725.002 243.759 727.272C243.371 731.884 239.943 735.691 233.64 739.757L233.457 739.874L233.249 739.936C217.55 744.545 208.256 750.39 204.152 757.562C200.111 764.626 200.857 773.45 206.49 784.74C212.122 796.029 222.489 809.458 237.083 825.424C251.085 840.742 268.904 858.313 290.005 878.474L288.906 830.234L242.789 799.562L242.186 799.161L242.125 798.438C241.416 789.964 242.01 783.786 245.488 779.6C248.972 775.406 254.996 773.63 263.882 772.892L264.461 772.844L264.922 773.199L288.889 791.674V701.043L170.872 627.311L170.505 627.08L170.316 626.69C167.771 621.415 166.257 617.124 165.754 613.595C165.246 610.032 165.755 607.133 167.384 604.802C168.984 602.511 171.515 600.99 174.588 599.843C177.664 598.694 181.462 597.857 185.781 597.048L186.346 596.941L186.837 597.24L288.889 659.263V551.29L145.425 408.166L144.965 407.707L144.984 407.059C145.155 401.525 145.726 397.178 146.794 393.848C147.868 390.498 149.48 388.074 151.788 386.553C154.082 385.041 156.858 384.558 159.989 384.67C162.721 384.768 165.834 385.323 169.314 386.141L170.829 386.507L171.221 386.604L171.511 386.885L288.889 500.471V397.891L209.902 241.486L209.663 241.013L209.774 240.493C211.893 230.686 214.882 224.749 220.131 222.472C222.734 221.343 225.707 221.203 229.046 221.717C231.962 222.166 235.246 223.128 238.94 224.458L240.55 225.05L241.096 225.255L241.359 225.775L288.889 319.478V164.821L289.324 164.382C296.756 156.905 302.632 153.698 308.421 154.235C314.086 154.762 319.152 158.87 324.992 164.346L325.466 164.79V319.841Z" fill="#FFFFFF"/>
</svg>
