<svg width="620" height="1059" viewBox="0 0 620 1059" fill="none" xmlns="http://www.w3.org/2000/svg">
<path d="M291.587 928.718V1004.09C291.587 1022.03 323.966 1023.23 323.966 1004.09V928.718C461.588 802.763 468.129 764.881 427.097 721.747C625.533 595.229 646.551 472.904 455.878 536.312C638.771 356.683 623.243 227.686 458.276 309.003C517.914 153.63 484.701 84.6619 387.523 123.568C355.047 17.9069 264.006 3.9311 229.229 123.568C144.351 74.0974 96.1172 165.44 158.476 309.003C4.45677 244.148 -28.6186 320.256 158.476 535.115C8.89294 463.852 -44.1895 582.969 188.456 724.14C128.525 770.325 217.237 862.917 287.99 923.932L291.587 882.059C202.579 797.203 169.677 757.038 232.827 738.496C245.309 730.443 244.312 724.66 236.424 713.372L103.313 617.664C31.6404 537.524 51.1522 532.553 151.281 567.417C187.931 566.236 194.738 555.286 188.456 521.955L73.3325 378.392C45.0825 309.957 58.6732 301.277 124.898 328.145C178.347 354.636 190.132 345.245 188.456 298.236L163.273 202.527C154.643 134.986 196.851 123.568 229.229 177.403C245.28 187.306 251.563 185.206 259.209 171.421C263.499 32.1601 359.942 44.6074 357.544 171.421C365.447 187.026 371.793 187.547 385.126 179.796C421.686 121.376 472.667 137.923 453.48 207.312L424.699 298.236C422.389 344.439 434.138 352.465 479.863 332.93C566.147 288.044 577.293 316.28 533.827 387.963L440.289 504.009C407.717 554.949 431.895 576.987 479.863 563.827C577.834 524.924 574.6 554.257 520.636 609.289V611.682L389.922 708.587C371.086 721.901 373.134 734.907 389.922 738.496C424.88 752.738 423.159 768.708 404.313 803.099L323.966 879.666V829.419L370.735 798.314C371.045 782.266 367.975 776.233 352.747 774.387L323.966 794.725V700.212L452.281 618.86C454.568 601.37 450.052 596.642 434.293 594.933L323.966 661.929V550.667L466.671 407.104C467.33 388.037 463.324 382.409 442.687 387.963L323.966 504.009V397.533L405.512 238.418C400.298 223.976 396 218.265 379.13 224.061L323.966 325.752V165.44C312.17 154.379 305.132 150.606 290.388 165.44V325.752L240.022 226.454C222.713 219.952 215.473 221.221 211.241 240.81L290.388 397.533V504.009L170.468 387.963C154.161 383.921 147.158 385.204 146.484 407.104L290.388 550.667V661.929L186.058 598.522C168.803 601.753 161.591 605.155 171.667 626.038L290.388 700.212V794.725L264.006 774.387C246.298 775.858 242.205 781.396 243.619 798.314L290.388 829.419L291.587 882.059V928.718Z" fill="white"/>
<path d="M291.587 928.718C291.587 928.718 291.587 986.143 291.587 1004.09M291.587 928.718V882.059M291.587 928.718L287.99 923.932M291.587 928.718V1004.09M291.587 1004.09C291.587 1022.03 323.966 1023.23 323.966 1004.09M323.966 1004.09C323.966 984.947 323.966 928.718 323.966 928.718M323.966 1004.09V928.718M323.966 928.718C461.588 802.763 468.129 764.881 427.097 721.747C625.533 595.229 646.551 472.904 455.878 536.312C638.771 356.683 623.243 227.686 458.276 309.003C517.914 153.63 484.701 84.6619 387.523 123.568C355.047 17.9069 264.006 3.9311 229.229 123.568C144.351 74.0974 96.1172 165.44 158.476 309.003C4.45677 244.148 -28.6186 320.256 158.476 535.115C8.89294 463.852 -44.1895 582.969 188.456 724.14C128.525 770.325 217.237 862.917 287.99 923.932M287.99 923.932L291.587 882.059M291.587 882.059C202.579 797.203 169.677 757.038 232.827 738.496C245.309 730.443 244.312 724.66 236.424 713.372L103.313 617.664C31.6404 537.524 51.1522 532.553 151.281 567.417C187.931 566.236 194.738 555.286 188.456 521.955L73.3325 378.392C45.0825 309.957 58.6732 301.277 124.898 328.145C178.347 354.636 190.132 345.245 188.456 298.236L163.273 202.527C154.643 134.986 196.851 123.568 229.229 177.403C245.28 187.306 251.563 185.206 259.209 171.421C263.499 32.1601 359.942 44.6074 357.544 171.421C365.447 187.026 371.793 187.547 385.126 179.796C421.686 121.376 472.667 137.923 453.48 207.312L424.699 298.236C422.389 344.439 434.138 352.465 479.863 332.93C566.147 288.044 577.293 316.28 533.827 387.963L440.289 504.009C407.717 554.949 431.895 576.987 479.863 563.827C577.834 524.924 574.6 554.257 520.636 609.289V611.682L389.922 708.587C371.086 721.901 373.134 734.907 389.922 738.496C424.88 752.738 423.159 768.708 404.313 803.099L323.966 879.666V829.419L370.735 798.314C371.045 782.266 367.975 776.233 352.747 774.387L323.966 794.725V700.212L452.281 618.86C454.568 601.37 450.052 596.642 434.293 594.933L323.966 661.929V550.667L466.671 407.104C467.33 388.037 463.324 382.409 442.687 387.963L323.966 504.009V397.533L405.512 238.418C400.298 223.976 396 218.265 379.13 224.061L323.966 325.752V165.44C312.17 154.379 305.132 150.606 290.388 165.44V325.752L240.022 226.454C222.713 219.952 215.473 221.221 211.241 240.81L290.388 397.533V504.009L170.468 387.963C154.161 383.921 147.158 385.204 146.484 407.104L290.388 550.667V661.929L186.058 598.522C168.803 601.753 161.591 605.155 171.667 626.038L290.388 700.212V794.725L264.006 774.387C246.298 775.858 242.205 781.396 243.619 798.314L290.388 829.419L291.587 882.059Z" stroke="white"/>
</svg>
