<svg width="384" height="512" viewBox="0 0 384 512" fill="none" xmlns="http://www.w3.org/2000/svg">
<path d="M192 0C85.969 0 0 85.969 0 192C0 298.031 192 512 192 512C192 512 384 298.031 384 192C384 85.969 298.031 0 192 0ZM192 320C121.312 320 64 262.688 64 192C64 121.312 121.312 64 192 64C262.688 64 320 121.312 320 192C320 262.688 262.688 320 192 320ZM192 128C156.655 128 128 156.656 128 192C128 227.344 156.655 256 192 256C227.344 256 256 227.344 256 192C256 156.656 227.344 128 192 128Z" fill="#EDBA71"/>
</svg>
