<svg width="2000" height="2000" viewBox="0 0 2000 2000" fill="none" xmlns="http://www.w3.org/2000/svg">
<rect x="23" y="23" width="1954" height="1954" rx="84" fill="white"/>
<rect x="23" y="23" width="1954" height="1954" rx="84" stroke="#3B3D87" stroke-width="46"/>
<path d="M420.848 1567.12L415.839 1575.47L444.224 1602.21C453.183 1604.65 455.177 1601.43 454.242 1588.84L435.875 1567.12C429.139 1562.92 425.968 1563.51 420.848 1567.12Z" fill="#3B3D87"/>
<path d="M639.581 1712.49C648.29 1709.71 652.173 1710.31 656.278 1717.5C657.697 1725.12 656.21 1727.9 647.93 1729.2C639.654 1725.18 637.483 1721.69 639.581 1712.49Z" fill="#3B3D87"/>
<path d="M799.874 1767.63V1759.27C816.161 1757.68 821.86 1760.45 829.929 1767.63C833.649 1776.58 832.629 1779.57 829.929 1784.34L794.865 1780.99C749.647 1776.53 764.001 1758.08 794.865 1767.63H799.874Z" fill="#3B3D87"/>
<path d="M352.389 504.432L350.72 522.812V527.824H365.747C372.509 520.551 373.137 514.819 370.756 502.761L352.389 504.432Z" fill="#3B3D87"/>
<path d="M911.746 1767.63H998.572C1004.49 1782.93 998.437 1786.72 953.489 1775.98C917.449 1775 925.104 1801.05 978.535 1797.7H1033.64C1056.26 1787.59 1065.55 1788.76 1078.72 1797.7C1082.33 1786.57 1092.47 1786.54 1112.11 1787.68C1116.98 1772.57 1130.18 1774.94 1155.53 1780.99C1160.84 1764.02 1181.95 1765.83 1217.3 1767.63C1230.51 1750.58 1243.57 1747.74 1272.41 1749.25C1292.34 1720.04 1314.31 1721.69 1354.22 1725.86C1370.92 1703.22 1385.92 1693.35 1419.34 1679.07C1440.21 1653.82 1450.16 1650.58 1467.76 1645.65C1504.52 1597.44 1527.29 1564.39 1544.57 1570.46C1547.91 1558.76 1578.98 1530.53 1591.32 1525.35C1600.48 1508.45 1605.61 1500.74 1614.7 1495.27C1637.02 1446.37 1644.7 1441.84 1658.11 1435.12C1656.52 1421.66 1668.13 1423.42 1671.47 1408.39C1674.81 1393.35 1684.83 1386.66 1684.83 1386.66V1369.95L1694.84 1363.27L1731.58 1284.74L1738.26 1256.33L1749.95 1226.26V1219.57H1758.29V1179.47H1766.64L1758.29 1146.06L1766.64 1141.04V1094.26L1774.99 1089.24L1780 987.32C1768.62 974.791 1768.05 967.043 1774.99 952.231C1779.56 912.444 1771.21 876.477 1759.96 816.889C1749.74 808.732 1746.48 797.956 1744.94 768.433C1733.49 755.104 1728.39 739.111 1721.56 696.585L1661.45 589.647V574.609H1651.43L1591.32 486.052V474.356H1574.62L1511.18 400.836H1494.48L1487.8 382.457L1472.77 372.431H1457.74L1451.07 355.722L1397.63 318.963H1385.95V308.937L1267.4 258.81L1252.37 253.798V242.101L1165.54 223.722H1137.16H1123.8V213.696H1095.42L1085.4 218.709L1078.72 208.684L1031.97 202H980.205L900.058 208.684L828.26 218.709L758.132 232.076L681.325 258.81C662.348 276.425 646.965 282.699 611.197 287.216L587.821 312.279C569.492 314.441 560.092 317.661 549.417 337.342C534.335 344.023 526.588 349.679 514.353 364.077C500.814 371.315 493.118 376.135 477.619 397.495C431.473 429.746 400.505 449.128 440.885 459.318C-46.8613 990.352 352.389 1697.45 871.673 1767.63H911.746Z" fill="#3B3D87"/>
<path d="M322.334 1458.51L334.023 1476.89C341.848 1477.91 345.384 1475.01 349.05 1463.52C346.595 1458.01 344.267 1456.38 339.032 1455.17C327.814 1453.38 324.343 1454.23 322.334 1458.51Z" fill="#3B3D87"/>
<path d="M349.05 1493.6L380.775 1535.37C386.643 1537.81 389.935 1537.94 395.802 1535.37L402.481 1532.03C403.31 1523.25 401.627 1520.14 395.802 1516.99L364.077 1498.61C356.969 1484.9 353.96 1485.46 349.05 1490.26V1493.6Z" fill="#3B3D87"/>
<path d="M420.848 1567.12L415.839 1575.47L444.224 1602.21C453.183 1604.65 455.177 1601.43 454.242 1588.84L435.875 1567.12C429.139 1562.92 425.968 1563.51 420.848 1567.12Z" stroke="white"/>
<path d="M639.581 1712.49C648.29 1709.71 652.173 1710.31 656.278 1717.5C657.697 1725.12 656.21 1727.9 647.93 1729.2C639.654 1725.18 637.483 1721.69 639.581 1712.49Z" stroke="white"/>
<path d="M799.874 1767.63V1759.27C816.161 1757.68 821.86 1760.45 829.929 1767.63C833.649 1776.58 832.629 1779.57 829.929 1784.34L794.865 1780.99C749.647 1776.53 764.001 1758.08 794.865 1767.63H799.874Z" stroke="white"/>
<path d="M352.389 504.432L350.72 522.812V527.824H365.747C372.509 520.551 373.137 514.819 370.756 502.761L352.389 504.432Z" stroke="white"/>
<path d="M911.746 1767.63H998.572C1004.49 1782.93 998.437 1786.72 953.489 1775.98C917.449 1775 925.104 1801.05 978.535 1797.7H1033.64C1056.26 1787.59 1065.55 1788.76 1078.72 1797.7C1082.33 1786.57 1092.47 1786.54 1112.11 1787.68C1116.98 1772.57 1130.18 1774.94 1155.53 1780.99C1160.84 1764.02 1181.95 1765.83 1217.3 1767.63C1230.51 1750.58 1243.57 1747.74 1272.41 1749.25C1292.34 1720.04 1314.31 1721.69 1354.22 1725.86C1370.92 1703.22 1385.92 1693.35 1419.34 1679.07C1440.21 1653.82 1450.16 1650.58 1467.76 1645.65C1504.52 1597.44 1527.29 1564.39 1544.57 1570.46C1547.91 1558.76 1578.98 1530.53 1591.32 1525.35C1600.48 1508.45 1605.61 1500.74 1614.7 1495.27C1637.02 1446.37 1644.7 1441.84 1658.11 1435.12C1656.52 1421.66 1668.13 1423.42 1671.47 1408.39C1674.81 1393.35 1684.83 1386.66 1684.83 1386.66V1369.95L1694.84 1363.27L1731.58 1284.74L1738.26 1256.33L1749.95 1226.26V1219.57H1758.29V1179.47H1766.64L1758.29 1146.06L1766.64 1141.04V1094.26L1774.99 1089.24L1780 987.32C1768.62 974.791 1768.05 967.043 1774.99 952.231C1779.56 912.444 1771.21 876.477 1759.96 816.889C1749.74 808.732 1746.48 797.956 1744.94 768.433C1733.49 755.104 1728.39 739.111 1721.56 696.585L1661.45 589.647V574.609H1651.43L1591.32 486.052V474.356H1574.62L1511.18 400.836H1494.48L1487.8 382.457L1472.77 372.431H1457.74L1451.07 355.722L1397.63 318.963H1385.95V308.937L1267.4 258.81L1252.37 253.798V242.101L1165.54 223.722H1137.16H1123.8V213.696H1095.42L1085.4 218.709L1078.72 208.684L1031.97 202H980.205L900.058 208.684L828.26 218.709L758.132 232.076L681.325 258.81C662.348 276.425 646.965 282.699 611.197 287.216L587.821 312.279C569.492 314.441 560.092 317.661 549.417 337.342C534.335 344.023 526.588 349.679 514.353 364.077C500.814 371.315 493.118 376.135 477.619 397.495C431.473 429.746 400.505 449.128 440.885 459.318C-46.8613 990.352 352.389 1697.45 871.673 1767.63H911.746Z" stroke="white"/>
<path d="M322.334 1458.51L334.023 1476.89C341.848 1477.91 345.384 1475.01 349.05 1463.52C346.595 1458.01 344.267 1456.38 339.032 1455.17C327.814 1453.38 324.343 1454.23 322.334 1458.51Z" stroke="white"/>
<path d="M349.05 1493.6L380.775 1535.37C386.643 1537.81 389.935 1537.94 395.802 1535.37L402.481 1532.03C403.31 1523.25 401.627 1520.14 395.802 1516.99L364.077 1498.61C356.969 1484.9 353.96 1485.46 349.05 1490.26V1493.6Z" stroke="white"/>
<path d="M981.019 1100.33V1156.61C981.018 1170.01 1005.16 1170.91 1005.16 1156.61V1100.33C1107.76 1006.28 1112.63 977.99 1082.04 945.781C1229.98 851.307 1245.65 759.964 1103.5 807.312C1239.85 673.179 1228.27 576.854 1105.29 637.575C1149.75 521.554 1124.99 470.054 1052.54 499.106C1028.33 420.206 960.456 409.77 934.529 499.106C871.251 462.165 835.292 530.373 881.781 637.575C766.957 589.146 742.299 645.978 881.781 806.418C770.264 753.204 730.69 842.152 904.132 947.567C859.453 982.055 925.589 1051.2 978.337 1096.76L981.019 1065.49C914.661 1002.13 890.132 972.133 937.211 958.288C946.517 952.274 945.774 947.956 939.893 939.527L840.656 868.059C787.223 808.217 801.769 804.505 876.417 830.538C903.741 829.657 908.816 821.481 904.132 796.591L818.305 689.389C797.244 638.287 807.376 631.806 856.749 651.868C896.595 671.65 905.381 664.638 904.132 629.535L885.358 558.066C878.924 507.632 910.39 499.106 934.529 539.306C946.496 546.7 951.18 545.133 956.88 534.839C960.078 430.85 1031.98 440.144 1030.19 534.839C1036.08 546.491 1040.81 546.881 1050.75 541.093C1078.01 497.469 1116.02 509.826 1101.71 561.64L1080.26 629.535C1078.53 664.036 1087.29 670.029 1121.38 655.442C1185.71 621.924 1194.02 643.008 1161.61 696.536L1091.88 783.191C1067.6 821.228 1085.62 837.685 1121.38 827.858C1194.42 798.808 1192.01 820.712 1151.78 861.806V863.592L1054.33 935.954C1040.29 945.896 1041.81 955.608 1054.33 958.288C1080.39 968.922 1079.11 980.847 1065.06 1006.53L1005.16 1063.7V1026.18L1040.02 1002.96C1040.26 990.972 1037.97 986.466 1026.61 985.088L1005.16 1000.28V929.7L1100.82 868.953C1102.52 855.893 1099.16 852.362 1087.41 851.086L1005.16 901.113V818.032L1111.55 710.829C1112.04 696.591 1109.05 692.389 1093.67 696.536L1005.16 783.191V703.683L1065.95 584.867C1062.06 574.083 1058.86 569.819 1046.28 574.147L1005.16 650.082V530.373C996.363 522.113 991.117 519.296 980.125 530.373V650.082L942.575 575.933C929.672 571.078 924.274 572.026 921.119 586.654L980.125 703.683V783.191L890.722 696.536C878.565 693.518 873.343 694.476 872.841 710.829L980.125 818.032V901.113L902.344 853.766C889.48 856.178 884.104 858.719 891.616 874.313L980.125 929.7V1000.28L960.456 985.088C947.254 986.186 944.203 990.322 945.258 1002.96L980.125 1026.18L981.019 1065.49V1100.33Z" fill="white"/>
<path d="M981.019 1100.33C981.019 1100.33 981.019 1143.21 981.019 1156.61M981.019 1100.33V1065.49M981.019 1100.33L978.337 1096.76M981.019 1100.33V1156.61M981.019 1156.61C981.018 1170.01 1005.16 1170.91 1005.16 1156.61M1005.16 1156.61C1005.16 1142.32 1005.16 1100.33 1005.16 1100.33M1005.16 1156.61V1100.33M1005.16 1100.33C1107.76 1006.28 1112.63 977.99 1082.04 945.781C1229.98 851.307 1245.65 759.964 1103.5 807.312C1239.85 673.179 1228.27 576.854 1105.29 637.575C1149.75 521.554 1124.99 470.054 1052.54 499.106C1028.33 420.206 960.456 409.77 934.529 499.106C871.251 462.165 835.292 530.373 881.781 637.575C766.957 589.146 742.299 645.978 881.781 806.418C770.264 753.204 730.69 842.152 904.132 947.567C859.453 982.055 925.589 1051.2 978.337 1096.76M978.337 1096.76L981.019 1065.49M981.019 1065.49C914.661 1002.13 890.132 972.133 937.211 958.288C946.517 952.274 945.774 947.956 939.893 939.527L840.656 868.059C787.223 808.217 801.769 804.505 876.417 830.538C903.741 829.657 908.816 821.481 904.132 796.591L818.305 689.389C797.244 638.287 807.376 631.806 856.749 651.868C896.595 671.65 905.381 664.638 904.132 629.535L885.358 558.066C878.924 507.632 910.39 499.106 934.529 539.306C946.496 546.7 951.18 545.133 956.88 534.839C960.078 430.85 1031.98 440.144 1030.19 534.839C1036.08 546.491 1040.81 546.881 1050.75 541.093C1078.01 497.469 1116.02 509.826 1101.71 561.64L1080.26 629.535C1078.53 664.036 1087.29 670.029 1121.38 655.442C1185.71 621.924 1194.02 643.008 1161.61 696.536L1091.88 783.191C1067.6 821.228 1085.62 837.685 1121.38 827.858C1194.42 798.808 1192.01 820.712 1151.78 861.806V863.592L1054.33 935.954C1040.29 945.896 1041.81 955.608 1054.33 958.288C1080.39 968.922 1079.11 980.847 1065.06 1006.53L1005.16 1063.7V1026.18L1040.02 1002.96C1040.26 990.972 1037.97 986.466 1026.61 985.088L1005.16 1000.28V929.7L1100.82 868.953C1102.52 855.893 1099.16 852.362 1087.41 851.086L1005.16 901.113V818.032L1111.55 710.829C1112.04 696.591 1109.05 692.389 1093.67 696.536L1005.16 783.191V703.683L1065.95 584.867C1062.06 574.083 1058.86 569.819 1046.28 574.147L1005.16 650.082V530.373C996.363 522.113 991.117 519.296 980.125 530.373V650.082L942.575 575.933C929.672 571.078 924.274 572.026 921.119 586.654L980.125 703.683V783.191L890.722 696.536C878.565 693.518 873.343 694.476 872.841 710.829L980.125 818.032V901.113L902.344 853.766C889.48 856.178 884.104 858.719 891.616 874.313L980.125 929.7V1000.28L960.456 985.088C947.254 986.186 944.203 990.322 945.258 1002.96L980.125 1026.18L981.019 1065.49Z" stroke="white"/>
<path d="M980.754 1065.33L978.248 1096.47L980.754 1100.41V1065.33Z" fill="white" stroke="white"/>
<path d="M709.3 1345.64C710.86 1355.12 711.04 1363.94 709.84 1372.1C708.76 1380.26 706.9 1387.58 704.26 1394.06C701.62 1400.42 698.56 1405.88 695.08 1410.44C691.72 1414.88 688.54 1418.18 685.54 1420.34C675.58 1427.66 666.16 1432.7 657.28 1435.46C648.4 1438.1 640.18 1438.88 632.62 1437.8C625.18 1436.84 618.46 1434.26 612.46 1430.06C606.46 1425.86 601.3 1420.58 596.98 1414.22C593.74 1409.42 591.58 1403.84 590.5 1397.48C589.54 1391 589.54 1384.28 590.5 1377.32C591.46 1370.24 593.38 1363.1 596.26 1355.9C599.26 1348.7 603.16 1341.98 607.96 1335.74C612.76 1329.38 618.46 1323.74 625.06 1318.82C631.66 1313.9 639.1 1310.12 647.38 1307.48C649.9 1306.64 653.2 1306.04 657.28 1305.68C661.36 1305.2 665.08 1305.14 668.44 1305.5L669.52 1310.72L666.46 1315.76L676.36 1313.78L682.3 1319L685.18 1311.44C690.94 1314.56 696.04 1318.88 700.48 1324.4C704.92 1329.92 707.86 1337 709.3 1345.64ZM685.18 1355.9C684.22 1350.26 682.54 1345.52 680.14 1341.68C677.86 1337.72 674.98 1334.84 671.5 1333.04C668.02 1331.12 664 1330.34 659.44 1330.7C654.88 1331.06 649.96 1332.68 644.68 1335.56C636.52 1339.88 630.04 1345.1 625.24 1351.22C620.44 1357.22 617.08 1363.34 615.16 1369.58C613.24 1375.82 612.64 1381.82 613.36 1387.58C614.08 1393.34 615.88 1398.14 618.76 1401.98C621.64 1405.7 624.82 1408.4 628.3 1410.08C631.9 1411.64 635.56 1412.48 639.28 1412.6C643 1412.72 646.66 1412.24 650.26 1411.16C653.98 1409.96 657.28 1408.46 660.16 1406.66C665.32 1403.54 669.64 1399.94 673.12 1395.86C676.72 1391.78 679.54 1387.52 681.58 1383.08C683.62 1378.64 684.88 1374.08 685.36 1369.4C685.96 1364.72 685.9 1360.22 685.18 1355.9ZM815.652 1434.56L809.892 1434.2L806.472 1438.52L797.112 1433.48L791.172 1438.7L783.432 1409.72L747.252 1413.5L741.132 1438.7L732.852 1439.6L723.672 1433.12L716.832 1434.56L742.392 1330.52L729.792 1331.24L730.692 1325.12L726.912 1319.54L731.412 1311.26L727.632 1307.12L780.732 1303.34L815.652 1434.56ZM777.132 1385.96L765.072 1340.24L753.372 1388.48L777.132 1385.96ZM910.25 1315.4L874.07 1361.48L905.39 1433.84L897.11 1440.5L887.93 1436L882.71 1442.66L856.97 1383.26L847.25 1395.5V1434.92L839.15 1432.04L831.05 1440.32L822.95 1436.54V1310.36L827.09 1306.04L834.65 1312.7L840.23 1307.66L847.25 1308.74V1356.26L890.99 1300.64L892.79 1306.4L902.33 1303.16L904.13 1311.26L910.25 1315.4ZM1012.53 1434.56L1006.77 1434.2L1003.35 1438.52L993.987 1433.48L988.047 1438.7L980.307 1409.72L944.127 1413.5L938.007 1438.7L929.727 1439.6L920.547 1433.12L913.707 1434.56L939.267 1330.52L926.667 1331.24L927.567 1325.12L923.787 1319.54L928.287 1311.26L924.507 1307.12L977.607 1303.34L1012.53 1434.56ZM974.007 1385.96L961.947 1340.24L950.247 1388.48L974.007 1385.96ZM1121.71 1343.3C1122.31 1350.38 1121.53 1357.34 1119.37 1364.18C1117.21 1371.02 1114.09 1377.68 1110.01 1384.16C1105.93 1390.64 1101.19 1396.82 1095.79 1402.7C1090.39 1408.46 1084.81 1413.8 1079.05 1418.72C1073.29 1423.52 1067.53 1427.78 1061.77 1431.5C1056.13 1435.22 1051.03 1438.22 1046.47 1440.5C1046.23 1440.26 1045.63 1439.96 1044.67 1439.6C1043.71 1439.36 1042.75 1439.06 1041.79 1438.7C1040.47 1438.22 1039.15 1437.8 1037.83 1437.44L1036.03 1426.64L1029.19 1425.2L1027.21 1333.04L1018.39 1334.12L1020.73 1328L1016.05 1322.24L1020.01 1315.22L1017.13 1309.46C1022.29 1308.86 1028.35 1308.2 1035.31 1307.48C1042.39 1306.64 1049.65 1306.16 1057.09 1306.04C1064.65 1305.8 1072.09 1306.1 1079.41 1306.94C1086.85 1307.78 1093.57 1309.58 1099.57 1312.34C1105.57 1314.98 1110.55 1318.82 1114.51 1323.86C1118.59 1328.78 1120.99 1335.26 1121.71 1343.3ZM1074.55 1329.98C1070.71 1329.14 1066.93 1328.96 1063.21 1329.44C1059.49 1329.92 1055.53 1330.28 1051.33 1330.52L1052.05 1409.36C1057.45 1406 1062.85 1401.92 1068.25 1397.12C1073.77 1392.32 1078.69 1387.28 1083.01 1382C1087.45 1376.6 1090.99 1371.2 1093.63 1365.8C1096.27 1360.4 1097.47 1355.36 1097.23 1350.68C1097.11 1345.88 1095.31 1341.68 1091.83 1338.08C1088.35 1334.36 1082.59 1331.66 1074.55 1329.98ZM1217.65 1419.08L1214.77 1425.02L1217.65 1431.14L1152.85 1442.12L1151.77 1434.2H1144.75L1146.01 1425.56L1137.01 1425.2L1139.71 1332.32H1132.69L1135.57 1326.38L1130.89 1320.62L1133.23 1314.68L1131.97 1308.56L1208.65 1304.78L1210.63 1314.14L1205.41 1320.08L1208.65 1329.08L1164.01 1331.24L1163.11 1363.1L1203.61 1358.24L1200.73 1366.7L1207.21 1372.46L1204.87 1382.36L1162.39 1387.58L1161.67 1415.66L1214.77 1406.84L1212.43 1413.86L1217.65 1419.08ZM1340.46 1437.26L1330.74 1433.66L1323.18 1441.22L1316.34 1438.34L1314.18 1377.32L1285.38 1446.26L1255.14 1372.82V1436.72L1249.74 1436L1243.08 1438.88L1237.86 1433.12L1230.84 1436.36L1231.74 1308.02L1237.86 1311.62L1245.42 1304.06L1254.78 1307.48L1284.84 1384.88L1311.66 1307.3L1317.42 1310.18L1324.08 1301.36L1329.3 1307.48L1336.5 1307.3L1340.46 1437.26ZM1447.18 1306.58L1414.42 1376.24L1415.5 1433.66L1410.1 1432.94L1403.8 1436L1397.32 1432.58L1391.2 1436L1390.12 1377.86L1350.16 1317.02L1361.5 1316.12L1362.58 1308.02L1370.5 1303.7L1400.38 1349.06L1425.22 1296.32L1431.52 1296.5L1434.58 1306.58L1441.78 1304.78L1447.18 1306.58Z" fill="white"/>
<path d="M799.76 1546.56L773.84 1551.04L773.36 1546.96H769.36L769.92 1493.52L772.88 1494.24L777.28 1490.88L780.72 1492.48L780.4 1538.4L797.84 1535.92L799.2 1537.92L797.52 1541.6L799.52 1543.28L799.76 1546.56ZM866.025 1542.48L864.745 1545.12L866.025 1547.84L837.225 1552.72L836.745 1549.2H833.625L834.185 1545.36L830.185 1545.2L831.385 1503.92H828.265L829.545 1501.28L827.465 1498.72L828.505 1496.08L827.945 1493.36L862.025 1491.68L862.905 1495.84L860.585 1498.48L862.025 1502.48L842.185 1503.44L841.785 1517.6L859.785 1515.44L858.505 1519.2L861.385 1521.76L860.345 1526.16L841.465 1528.48L841.145 1540.96L864.745 1537.04L863.705 1540.16L866.025 1542.48ZM935.249 1549.36L932.689 1549.2L931.169 1551.12L927.009 1548.88L924.369 1551.2L920.929 1538.32L904.849 1540L902.129 1551.2L898.449 1551.6L894.369 1548.72L891.329 1549.36L902.689 1503.12L897.089 1503.44L897.489 1500.72L895.809 1498.24L897.809 1494.56L896.129 1492.72L919.729 1491.04L935.249 1549.36ZM918.129 1527.76L912.769 1507.44L907.569 1528.88L918.129 1527.76ZM1003.69 1547.76L1001.61 1550H996.093L994.013 1552.48L984.573 1532.56C983.346 1533.31 982.093 1534.03 980.813 1534.72C979.586 1535.36 978.333 1536 977.053 1536.64L977.533 1549.68L974.413 1549.6L972.253 1551.36L969.373 1548.64L966.733 1550.08L965.133 1502.88C964.653 1502.99 964.199 1503.04 963.773 1503.04C963.399 1503.04 963.079 1503.07 962.813 1503.12C962.493 1503.17 962.226 1503.2 962.013 1503.2L963.213 1499.92L960.733 1496.72L961.933 1494.88L960.813 1492.48C963.319 1492.16 965.853 1491.87 968.413 1491.6C970.546 1491.33 972.813 1491.12 975.213 1490.96C977.666 1490.8 979.826 1490.72 981.693 1490.72C983.933 1490.72 986.146 1490.85 988.333 1491.12C990.573 1491.39 992.653 1491.89 994.573 1492.64C996.546 1493.39 998.306 1494.43 999.853 1495.76C1001.4 1497.09 1002.63 1498.85 1003.53 1501.04C1004.6 1503.6 1005.11 1506.05 1005.05 1508.4C1005 1510.75 1004.49 1512.99 1003.53 1515.12C1002.63 1517.2 1001.32 1519.2 999.613 1521.12C997.959 1523.04 996.013 1524.85 993.773 1526.56L1003.69 1547.76ZM987.373 1517.52C990.573 1515.44 992.546 1513.41 993.293 1511.44C994.093 1509.41 994.013 1507.63 993.053 1506.08C992.146 1504.53 990.573 1503.33 988.333 1502.48C986.093 1501.63 983.559 1501.31 980.733 1501.52C980.039 1501.57 979.293 1501.63 978.493 1501.68C977.693 1501.73 976.839 1501.81 975.933 1501.92L976.653 1524.32C978.466 1523.25 980.226 1522.16 981.933 1521.04C983.693 1519.92 985.506 1518.75 987.373 1517.52ZM1073.04 1493.04L1070.96 1548.4L1068.24 1545.68L1067.2 1549.6L1044.08 1516.56L1045.2 1548.72L1042.88 1549.12L1038.72 1546.96L1036.88 1550L1034.24 1549.76L1032.72 1493.92L1035.44 1495.04L1038.72 1492L1042.96 1493.04L1061.36 1521.52L1062.24 1492.72L1064.8 1493.76L1067.6 1490.88L1070 1493.12L1073.04 1493.04ZM1114.78 1492.4L1114.38 1549.84L1111.58 1551.92L1106.38 1548.4L1103.58 1550L1103.98 1492.48L1106.54 1490.8L1109.34 1493.92L1112.06 1492.48L1114.78 1492.4ZM1186.16 1493.04L1184.08 1548.4L1181.36 1545.68L1180.32 1549.6L1157.2 1516.56L1158.32 1548.72L1156 1549.12L1151.84 1546.96L1150 1550L1147.36 1549.76L1145.84 1493.92L1148.56 1495.04L1151.84 1492L1156.08 1493.04L1174.48 1521.52L1175.36 1492.72L1177.92 1493.76L1180.72 1490.88L1183.12 1493.12L1186.16 1493.04ZM1263.82 1522.48L1262.54 1525.2V1528.08L1258.94 1528.96L1258.86 1545.28C1254.11 1548.32 1249.39 1550.35 1244.7 1551.36C1240.06 1552.43 1235.77 1552.61 1231.82 1551.92C1227.93 1551.23 1224.54 1549.79 1221.66 1547.6C1218.78 1545.36 1216.78 1542.56 1215.66 1539.2C1214.81 1536.69 1214.49 1533.89 1214.7 1530.8C1214.97 1527.71 1215.66 1524.53 1216.78 1521.28C1217.9 1517.97 1219.42 1514.67 1221.34 1511.36C1223.31 1508.05 1225.61 1504.93 1228.22 1502C1230.83 1499.07 1233.74 1496.43 1236.94 1494.08C1240.19 1491.68 1243.66 1489.79 1247.34 1488.4L1249.26 1490.32L1251.98 1490.16L1252.94 1493.92L1255.9 1493.12L1254.7 1509.6L1252.14 1509.28L1249.42 1511.44L1246.46 1508.32L1243.82 1510.24L1244.14 1501.76C1240.78 1504.27 1237.79 1507.01 1235.18 1510C1232.62 1512.93 1230.54 1515.92 1228.94 1518.96C1227.34 1521.95 1226.22 1524.83 1225.58 1527.6C1224.99 1530.37 1224.99 1532.83 1225.58 1534.96C1226.01 1536.67 1226.99 1538.03 1228.54 1539.04C1230.14 1540 1232.01 1540.67 1234.14 1541.04C1236.27 1541.36 1238.54 1541.36 1240.94 1541.04C1243.39 1540.67 1245.74 1539.97 1247.98 1538.96L1248.38 1529.44L1237.1 1530.32L1235.9 1527.12L1238.22 1521.92L1236.86 1519.52L1262.62 1516.88L1261.58 1519.84L1263.82 1522.48Z" fill="white"/>
</svg>
